<svg width="25" height="25" viewBox="0 0 25 25" fill="none" xmlns="http://www.w3.org/2000/svg">
<path opacity="0.4" d="M15.3436 2.97733H9.55819C8.8799 2.97733 7.92232 3.37632 7.44353 3.85511L3.35386 7.94478C2.87507 8.42357 2.47607 9.38116 2.47607 10.0594V15.8448C2.47607 16.5231 2.87507 17.4807 3.35386 17.9595L7.44353 22.0492C7.92232 22.528 8.8799 22.9269 9.55819 22.9269H15.3436C16.0219 22.9269 16.9795 22.528 17.4582 22.0492L21.5479 17.9595C22.0267 17.4807 22.4257 16.5231 22.4257 15.8448V10.0594C22.4257 9.38116 22.0267 8.42357 21.5479 7.94478L17.4582 3.85511C16.9795 3.37632 16.0219 2.97733 15.3436 2.97733Z" fill="#FF0000"/>
<path d="M13.5082 12.9531L16.4707 9.99061C16.76 9.70134 16.76 9.22255 16.4707 8.93328C16.33 8.79415 16.14 8.71613 15.9421 8.71613C15.7441 8.71613 15.5542 8.79415 15.4134 8.93328L12.4509 11.8958L9.48836 8.93328C9.34758 8.79415 9.15763 8.71613 8.9597 8.71613C8.76177 8.71613 8.57182 8.79415 8.43103 8.93328C8.14176 9.22255 8.14176 9.70134 8.43103 9.99061L11.3936 12.9531L8.43103 15.9156C8.14176 16.2049 8.14176 16.6837 8.43103 16.973C8.58066 17.1226 8.77018 17.1924 8.9597 17.1924C9.14922 17.1924 9.33874 17.1226 9.48836 16.973L12.4509 14.0105L15.4134 16.973C15.563 17.1226 15.7525 17.1924 15.9421 17.1924C16.1316 17.1924 16.3211 17.1226 16.4707 16.973C16.76 16.6837 16.76 16.2049 16.4707 15.9156L13.5082 12.9531Z" fill="#ECECEC"/>
</svg>
